<svg width="127" height="127" viewBox="0 0 127 127" fill="none" xmlns="http://www.w3.org/2000/svg">
<circle cx="63" cy="63" r="45" fill="#E3E3E3" fill-opacity="0.37"/>
<g clip-path="url(#clip0_337_11995)">
<path d="M49.277 62.4804C48.902 62.1054 48.6914 61.5967 48.6914 61.0664C48.6914 60.5361 48.902 60.0275 49.277 59.6524L61.277 47.6524C61.652 47.2775 62.1607 47.0668 62.691 47.0668C63.2213 47.0668 63.7299 47.2775 64.105 47.6524L76.105 59.6524C76.4693 60.0296 76.6709 60.5348 76.6663 61.0592C76.6618 61.5836 76.4514 62.0852 76.0806 62.456C75.7098 62.8269 75.2082 63.0372 74.6838 63.0418C74.1594 63.0463 73.6542 62.8447 73.277 62.4804L64.691 53.8944V77.0664C64.691 77.5968 64.4803 78.1055 64.1052 78.4806C63.7301 78.8557 63.2214 79.0664 62.691 79.0664C62.1605 79.0664 61.6518 78.8557 61.2768 78.4806C60.9017 78.1055 60.691 77.5968 60.691 77.0664V53.8944L52.105 62.4804C51.7299 62.8553 51.2213 63.066 50.691 63.066C50.1607 63.066 49.652 62.8553 49.277 62.4804Z" fill="white"/>
</g>
<defs>
<clipPath id="clip0_337_11995">
<rect width="29" height="33" fill="white" transform="translate(48 47)"/>
</clipPath>
</defs>
</svg>
