<svg width="97" height="97" viewBox="0 0 97 97" fill="none" xmlns="http://www.w3.org/2000/svg">
<circle cx="48" cy="48" r="30" fill="#E3E3E3" fill-opacity="0.37"/>
<g clip-path="url(#clip0_403_10924)">
<path d="M34.278 47.4804C33.903 47.1054 33.6924 46.5967 33.6924 46.0664C33.6924 45.5361 33.903 45.0275 34.278 44.6524L46.278 32.6524C46.653 32.2775 47.1616 32.0668 47.692 32.0668C48.2223 32.0668 48.7309 32.2775 49.106 32.6524L61.106 44.6524C61.4703 45.0296 61.6719 45.5348 61.6673 46.0592C61.6627 46.5836 61.4524 47.0852 61.0816 47.456C60.7108 47.8269 60.2092 48.0372 59.6848 48.0418C59.1604 48.0463 58.6552 47.8447 58.278 47.4804L49.692 38.8944V62.0664C49.692 62.5968 49.4812 63.1055 49.1062 63.4806C48.7311 63.8557 48.2224 64.0664 47.692 64.0664C47.1615 64.0664 46.6528 63.8557 46.2777 63.4806C45.9027 63.1055 45.692 62.5968 45.692 62.0664V38.8944L37.106 47.4804C36.7309 47.8553 36.2223 48.066 35.692 48.066C35.1616 48.066 34.653 47.8553 34.278 47.4804Z" fill="white"/>
</g>
<defs>
<clipPath id="clip0_403_10924">
<rect width="29" height="33" fill="white" transform="translate(33 32)"/>
</clipPath>
</defs>
</svg>
