<svg width="17" height="17" viewBox="0 0 17 17" fill="none" xmlns="http://www.w3.org/2000/svg">
<g clip-path="url(#clip0_524_6105)">
<path d="M8.49324 1.41666C4.58324 1.41666 1.41699 4.58999 1.41699 8.49999C1.41699 12.41 4.58324 15.5833 8.49324 15.5833C12.4103 15.5833 15.5837 12.41 15.5837 8.49999C15.5837 4.58999 12.4103 1.41666 8.49324 1.41666ZM8.50033 14.1667C5.36949 14.1667 2.83366 11.6308 2.83366 8.49999C2.83366 5.36916 5.36949 2.83332 8.50033 2.83332C11.6312 2.83332 14.167 5.36916 14.167 8.49999C14.167 11.6308 11.6312 14.1667 8.50033 14.1667ZM8.85449 4.95832H7.79199V9.20832L11.5107 11.4396L12.042 10.5683L8.85449 8.67707V4.95832Z" fill="white"/>
</g>
<defs>
<clipPath id="clip0_524_6105">
<rect width="17" height="17" fill="white"/>
</clipPath>
</defs>
</svg>
