<svg width="12" height="13" viewBox="0 0 12 13" fill="none" xmlns="http://www.w3.org/2000/svg">
<path fill-rule="evenodd" clip-rule="evenodd" d="M3.0002 3.5002C3.0002 2.50609 3.80609 1.7002 4.8002 1.7002C5.26121 1.7002 5.68174 1.87351 6.0002 2.15854C6.31868 1.87351 6.73916 1.7002 7.2002 1.7002C8.19434 1.7002 9.0002 2.50609 9.0002 3.5002C9.0002 3.71058 8.96408 3.91253 8.89778 4.1002H9.6002C10.263 4.1002 10.8002 4.63745 10.8002 5.3002C10.8002 5.96294 10.263 6.5002 9.6002 6.5002H6.6002V5.9002C6.6002 5.56883 6.33158 5.3002 6.0002 5.3002C5.66883 5.3002 5.4002 5.56882 5.4002 5.9002V6.5002H2.4002C1.73745 6.5002 1.2002 5.96294 1.2002 5.3002C1.2002 4.63745 1.73745 4.1002 2.4002 4.1002H3.10262C3.03629 3.91253 3.0002 3.71058 3.0002 3.5002ZM5.4002 4.1002V3.5002C5.4002 3.16883 5.13156 2.9002 4.8002 2.9002C4.46883 2.9002 4.2002 3.16883 4.2002 3.5002C4.2002 3.83156 4.46883 4.1002 4.8002 4.1002H5.4002ZM7.2002 4.1002C7.53158 4.1002 7.8002 3.83156 7.8002 3.5002C7.8002 3.16883 7.53158 2.9002 7.2002 2.9002C6.86882 2.9002 6.6002 3.16883 6.6002 3.5002V4.1002H7.2002Z" fill="#374151"/>
<path d="M5.3998 7.1001H1.7998V10.1001C1.7998 10.7629 2.33706 11.3001 2.9998 11.3001H5.3998V7.1001Z" fill="#374151"/>
<path d="M6.59961 11.3001H8.99961C9.66237 11.3001 10.1996 10.7629 10.1996 10.1001V7.1001H6.59961V11.3001Z" fill="#374151"/>
</svg>
