<svg width="48" height="48" viewBox="0 0 48 48" fill="none" xmlns="http://www.w3.org/2000/svg">
<rect width="16" height="21" transform="translate(18 14)" fill="white"/>
<path d="M47.6856 13.9491C47.6856 9.73031 44.5824 6.33656 40.7481 6.33656C35.5543 6.09375 30.2574 6 24.8443 6H23.1568C17.7568 6 12.4506 6.09375 7.25682 6.3375C3.43182 6.3375 0.328695 9.75 0.328695 13.9687C0.0943201 17.3053 -0.0050549 20.6428 0.000570101 23.9803C-0.0088049 27.3178 0.0974451 30.6584 0.31932 34.0022C0.31932 38.2209 3.42245 41.6428 7.24745 41.6428C12.7037 41.8959 18.3006 42.0084 23.9912 41.9991C29.6912 42.0178 35.2724 41.8991 40.7349 41.6428C44.5693 41.6428 47.6724 38.2209 47.6724 34.0022C47.8974 30.6553 48.0006 27.3178 47.9912 23.9709C48.0124 20.6334 47.9106 17.2928 47.6856 13.9491ZM19.4068 33.1772V14.7553L33.0006 23.9616L19.4068 33.1772Z" fill="#FF0000"/>
</svg>
