<svg width="17" height="18" viewBox="0 0 17 18" fill="none" xmlns="http://www.w3.org/2000/svg">
<g clip-path="url(#clip0_524_992)">
<path d="M8.493 1.91675C4.583 1.91675 1.41675 5.09008 1.41675 9.00008C1.41675 12.9101 4.583 16.0834 8.493 16.0834C12.4101 16.0834 15.5834 12.9101 15.5834 9.00008C15.5834 5.09008 12.4101 1.91675 8.493 1.91675ZM8.50008 14.6667C5.36925 14.6667 2.83341 12.1309 2.83341 9.00008C2.83341 5.86925 5.36925 3.33341 8.50008 3.33341C11.6309 3.33341 14.1667 5.86925 14.1667 9.00008C14.1667 12.1309 11.6309 14.6667 8.50008 14.6667ZM8.85425 5.45842H7.79175V9.70842L11.5105 11.9397L12.0417 11.0684L8.85425 9.17717V5.45842Z" fill="#B6B6B6"/>
</g>
<defs>
<clipPath id="clip0_524_992">
<rect width="17" height="17" fill="white" transform="translate(0 0.5)"/>
</clipPath>
</defs>
</svg>
