<svg width="21" height="20" viewBox="0 0 21 20" fill="none" xmlns="http://www.w3.org/2000/svg">
<g clip-path="url(#clip0_524_7025)">
<path fill-rule="evenodd" clip-rule="evenodd" d="M10.5004 19.5999C15.8024 19.5999 20.1004 15.3019 20.1004 9.9999C20.1004 4.69797 15.8024 0.399902 10.5004 0.399902C5.19845 0.399902 0.900391 4.69797 0.900391 9.9999C0.900391 15.3019 5.19845 19.5999 10.5004 19.5999ZM14.9489 9.15137L11.3489 5.55137C10.8803 5.08275 10.1205 5.08275 9.65186 5.55137C9.18323 6.02001 9.18323 6.7798 9.65186 7.24843L11.2034 8.7999H6.90039C6.23765 8.7999 5.70039 9.33715 5.70039 9.9999C5.70039 10.6627 6.23765 11.1999 6.90039 11.1999H11.2034L9.65186 12.7514C9.18323 13.22 9.18323 13.9798 9.65186 14.4484C10.1205 14.917 10.8803 14.917 11.3489 14.4484L14.9489 10.8484C15.4175 10.3798 15.4175 9.62001 14.9489 9.15137Z" fill="#ACACAC" fill-opacity="0.74"/>
</g>
<defs>
<clipPath id="clip0_524_7025">
<rect width="20" height="20" fill="white" transform="translate(0.5)"/>
</clipPath>
</defs>
</svg>
