<svg width="41" height="48" viewBox="0 0 41 48" fill="none" xmlns="http://www.w3.org/2000/svg">
<path d="M4.09961 11.4C4.09961 10.4059 4.78798 9.59998 5.63711 9.59998H35.3621C36.2112 9.59998 36.8996 10.4059 36.8996 11.4C36.8996 12.3941 36.2112 13.2 35.3621 13.2H5.63711C4.78798 13.2 4.09961 12.3941 4.09961 11.4ZM4.09961 23.4C4.09961 22.4059 4.78798 21.6 5.63711 21.6H35.3621C36.2112 21.6 36.8996 22.4059 36.8996 23.4C36.8996 24.3941 36.2112 25.2 35.3621 25.2H5.63711C4.78798 25.2 4.09961 24.3941 4.09961 23.4ZM5.63711 33.6C4.78798 33.6 4.09961 34.4059 4.09961 35.4C4.09961 36.3941 4.78798 37.2 5.63711 37.2H35.3621C36.2112 37.2 36.8996 36.3941 36.8996 35.4C36.8996 34.4059 36.2112 33.6 35.3621 33.6H5.63711Z" fill="white"/>
</svg>
