<svg width="127" height="127" viewBox="0 0 127 127" fill="none" xmlns="http://www.w3.org/2000/svg">
<circle cx="64" cy="64" r="45" transform="rotate(-180 64 64)" fill="#0066CC"/>
<path d="M48 49.4C48 48.0745 49.0745 47 50.4 47H55.5669C56.7401 47 57.7414 47.8482 57.9342 49.0054L59.7086 59.6515C59.8818 60.6908 59.3569 61.7215 58.4146 62.1927L54.699 64.0505C57.3781 70.7079 62.692 76.0218 69.3494 78.7009L71.2073 74.9854C71.6784 74.043 72.7092 73.5181 73.7484 73.6914L84.3946 75.4657C85.5518 75.6586 86.4 76.6599 86.4 77.833V83C86.4 84.3255 85.3255 85.4 84 85.4H79.2C61.9687 85.4 48 71.4313 48 54.2V49.4Z" fill="white"/>
</svg>
