<svg width="12" height="14" viewBox="0 0 12 14" fill="none" xmlns="http://www.w3.org/2000/svg">
<path d="M6 0.432617C7.12411 0.432617 8.04272 1.31248 8.1048 2.4211L8.10811 2.54073H11.5135C11.7822 2.54073 12 2.75853 12 3.02721C12 3.2735 11.817 3.47704 11.5795 3.50925L11.5135 3.5137H10.9972L10.1669 11.9586C10.0808 12.8337 9.37193 13.5094 8.50547 13.5642L8.39163 13.5678H3.60839C2.72909 13.5678 1.98723 12.9285 1.84789 12.0716L1.83317 11.9586L1.00216 3.5137H0.486486C0.240195 3.5137 0.0366551 3.33068 0.00444325 3.09322L0 3.02721C0 2.78092 0.183016 2.57738 0.420474 2.54517L0.486486 2.54073H3.89189C3.89189 1.37645 4.83574 0.432617 6 0.432617ZM10.0197 3.5137H1.97968L2.80147 11.8634C2.83958 12.2507 3.14616 12.5522 3.52596 12.5906L3.60839 12.5948H8.39163C8.78089 12.5948 9.11085 12.3192 9.18636 11.945L9.19855 11.8634L10.0197 3.5137ZM7.13513 5.29748C7.38143 5.29748 7.58497 5.4805 7.61721 5.71796L7.62162 5.78397V10.3245C7.62162 10.5932 7.40381 10.811 7.13513 10.811C6.88884 10.811 6.6853 10.6279 6.65306 10.3905L6.64865 10.3245V5.78397C6.64865 5.51529 6.86646 5.29748 7.13513 5.29748ZM4.86486 5.29748C5.11116 5.29748 5.3147 5.4805 5.34694 5.71796L5.35135 5.78397V10.3245C5.35135 10.5932 5.13353 10.811 4.86486 10.811C4.61857 10.811 4.41503 10.6279 4.38282 10.3905L4.37838 10.3245V5.78397C4.37838 5.51529 4.59619 5.29748 4.86486 5.29748ZM6 1.40559C5.40441 1.40559 4.91598 1.86426 4.86863 2.44762L4.86486 2.54073H7.13513C7.13513 1.91381 6.62692 1.40559 6 1.40559Z" fill="#FF0000"/>
</svg>
