<svg width="14" height="9" viewBox="0 0 14 9" fill="none" xmlns="http://www.w3.org/2000/svg">
<path d="M0.292534 0.554829C0.4799 0.36764 0.733989 0.262483 0.998925 0.262483C1.26386 0.262483 1.51795 0.36764 1.70532 0.554829L6.99375 5.83985L12.2822 0.554829C12.3744 0.459463 12.4846 0.383395 12.6065 0.331064C12.7284 0.278734 12.8595 0.25119 12.9922 0.250038C13.1248 0.248886 13.2564 0.27415 13.3792 0.324355C13.502 0.37456 13.6135 0.448701 13.7074 0.542453C13.8012 0.636204 13.8754 0.747687 13.9256 0.870398C13.9758 0.993109 14.0011 1.12459 14 1.25717C13.9988 1.38975 13.9712 1.52077 13.9189 1.64259C13.8665 1.76441 13.7904 1.87459 13.695 1.9667L7.70014 7.95765C7.51278 8.14484 7.25869 8.25 6.99375 8.25C6.72882 8.25 6.47473 8.14484 6.28736 7.95765L0.292534 1.9667C0.105225 1.77945 0 1.52553 0 1.26076C0 0.995999 0.105225 0.742074 0.292534 0.554829Z" fill="#D2D2D2"/>
</svg>
