<svg width="21" height="20" viewBox="0 0 21 20" fill="none" xmlns="http://www.w3.org/2000/svg">
<path d="M9.53229 1.69645C9.83692 0.767849 11.1631 0.767849 11.4677 1.69645L13.0128 6.40721C13.149 6.82249 13.5397 7.10366 13.9804 7.10366H18.9806C19.9662 7.10366 20.376 8.35309 19.5787 8.92697L15.5334 11.8384C15.1768 12.0951 15.0276 12.55 15.1639 12.9653L16.709 17.6761C17.0135 18.6047 15.9406 19.3768 15.1432 18.8029L11.0981 15.8916C10.7414 15.6349 10.2586 15.6349 9.90193 15.8916L5.85676 18.8029C5.05936 19.3768 3.98646 18.6047 4.29104 17.6761L5.83617 12.9653C5.97237 12.55 5.82315 12.0951 5.46655 11.8384L1.42137 8.92697C0.62396 8.35309 1.03377 7.10366 2.01942 7.10366H7.01954C7.46033 7.10366 7.851 6.82249 7.9872 6.40721L9.53229 1.69645Z" fill="url(#paint0_linear_524_7035)" stroke="#FFB800" stroke-width="2" stroke-linecap="round" stroke-linejoin="round"/>
<defs>
<linearGradient id="paint0_linear_524_7035" x1="10.5" y1="1" x2="21" y2="1" gradientUnits="userSpaceOnUse">
<stop stop-color="#FFB800"/>
<stop offset="0.166667" stop-color="#FFB800" stop-opacity="0"/>
</linearGradient>
</defs>
</svg>
