<svg width="21" height="22" viewBox="0 0 21 22" fill="none" xmlns="http://www.w3.org/2000/svg">
<path fill-rule="evenodd" clip-rule="evenodd" d="M7.87501 3.125C4.97551 3.125 2.625 5.47551 2.625 8.37501C2.625 11.2745 4.97551 13.625 7.87501 13.625C10.7745 13.625 13.125 11.2745 13.125 8.37501C13.125 5.47551 10.7745 3.125 7.87501 3.125ZM0 8.37501C0 4.02576 3.52576 0.5 7.87501 0.5C12.2242 0.5 15.75 4.02576 15.75 8.37501C15.75 10.0758 15.2108 11.6506 14.2941 12.9379L20.6156 19.2595C21.1281 19.772 21.1281 20.6031 20.6156 21.1156C20.1031 21.6281 19.272 21.6281 18.7595 21.1156L12.4379 14.7941C11.1506 15.7108 9.57579 16.25 7.87501 16.25C3.52576 16.25 0 12.7242 0 8.37501Z" fill="white" fill-opacity="0.88"/>
</svg>
