<svg width="21" height="24" viewBox="0 0 21 24" fill="none" xmlns="http://www.w3.org/2000/svg">
<path d="M20.528 7.62837C20.3783 7.47758 20.2001 7.35799 20.0039 7.27654C19.8076 7.19508 19.5971 7.15338 19.3846 7.15385H16.1538V6.34616C16.1538 4.84667 15.5582 3.40859 14.4979 2.34829C13.4376 1.28799 11.9995 0.692314 10.5 0.692314C9.0005 0.692314 7.56243 1.28799 6.50212 2.34829C5.44182 3.40859 4.84615 4.84667 4.84615 6.34616V7.15385H1.61538C1.18696 7.15385 0.776078 7.32404 0.473135 7.62699C0.170192 7.92993 0 8.34081 0 8.76923V19.6731C0 21.6418 1.66586 23.3077 3.63461 23.3077H17.3654C18.3177 23.308 19.2323 22.9357 19.9136 22.2703C20.2565 21.9432 20.5296 21.55 20.7163 21.1145C20.903 20.6789 20.9995 20.2101 21 19.7362V8.76923C21.0007 8.55731 20.9593 8.34736 20.8783 8.15153C20.7972 7.9557 20.6782 7.77788 20.528 7.62837ZM6.46154 6.34616C6.46154 5.27509 6.88702 4.24789 7.64437 3.49054C8.40173 2.73318 9.42893 2.3077 10.5 2.3077C11.5711 2.3077 12.5983 2.73318 13.3556 3.49054C14.113 4.24789 14.5385 5.27509 14.5385 6.34616V7.15385H6.46154V6.34616Z" fill="white" fill-opacity="0.88"/>
</svg>
